<svg width="278" height="250" viewBox="0 0 278 250" fill="none" xmlns="http://www.w3.org/2000/svg">
<g clip-path="url(#clip0_32_144)">
<path fill-rule="evenodd" clip-rule="evenodd" d="M264.605 163H40.3946C56.3764 209.547 100.531 243 152.5 243C204.469 243 248.624 209.547 264.605 163ZM270.974 122H34.0259C35.3565 57.7085 87.8897 6 152.5 6C217.11 6 269.644 57.7085 270.974 122Z" fill="#5CE1E6"/>
<path fill-rule="evenodd" clip-rule="evenodd" d="M270.508 163C254.481 212.614 207.913 248.5 152.965 248.5C98.0159 248.5 51.4488 212.614 35.4212 163H33.8454C49.9273 213.455 97.1783 250 152.965 250C208.751 250 256.002 213.455 272.084 163H270.508ZM29.5004 122C31.0934 55.1789 85.7604 1.5 152.965 1.5C220.169 1.5 274.836 55.1789 276.429 122H277.929C276.336 54.3503 220.997 0 152.965 0C84.9319 0 29.5933 54.3503 28 122H29.5004Z" fill="black"/>
<path d="M5.37963 160.667H0L8.19698 136.333H14.6664L22.8518 160.667H17.4722L11.5245 141.894H11.339L5.37963 160.667ZM5.0434 151.102H17.7505V155.118H5.0434V151.102Z" fill="black"/>
<path d="M27.0345 136.333L32.7735 154.821H32.9938L38.7445 136.333H44.3096L36.1242 160.667H29.6547L21.4578 136.333H27.0345Z" fill="black"/>
<path d="M46.2632 140.575V136.333H65.7643V140.575H58.4949V160.667H53.5326V140.575H46.2632Z" fill="black"/>
<path d="M89.7117 148.5C89.7117 151.154 89.2209 153.411 88.2393 155.273C87.2654 157.134 85.9359 158.556 84.2509 159.538C82.5737 160.513 80.6877 161 78.593 161C76.4829 161 74.5892 160.509 72.912 159.527C71.2347 158.544 69.9091 157.122 68.9352 155.261C67.9613 153.399 67.4744 151.146 67.4744 148.5C67.4744 145.846 67.9613 143.589 68.9352 141.727C69.9091 139.866 71.2347 138.448 72.912 137.473C74.5892 136.491 76.4829 136 78.593 136C80.6877 136 82.5737 136.491 84.2509 137.473C85.9359 138.448 87.2654 139.866 88.2393 141.727C89.2209 143.589 89.7117 145.846 89.7117 148.5ZM84.6219 148.5C84.6219 146.781 84.3707 145.331 83.8683 144.151C83.3736 142.971 82.6741 142.076 81.7698 141.466C80.8655 140.856 79.8065 140.551 78.593 140.551C77.3795 140.551 76.3206 140.856 75.4163 141.466C74.5119 142.076 73.8086 142.971 73.3062 144.151C72.8115 145.331 72.5641 146.781 72.5641 148.5C72.5641 150.219 72.8115 151.669 73.3062 152.849C73.8086 154.029 74.5119 154.924 75.4163 155.534C76.3206 156.144 77.3795 156.449 78.593 156.449C79.8065 156.449 80.8655 156.144 81.7698 155.534C82.6741 154.924 83.3736 154.029 83.8683 152.849C84.3707 151.669 84.6219 150.219 84.6219 148.5Z" fill="black"/>
<path d="M93.4304 136.333H99.6216L106.161 152.683H106.439L112.978 136.333H119.169V160.667H114.3V144.828H114.103L107.958 160.548H104.642L98.497 144.769H98.2999V160.667H93.4304V136.333Z" fill="black"/>
<path d="M128.326 136.333V160.667H123.305V136.333H128.326Z" fill="black"/>
<path d="M132.456 160.667V136.333H141.824C143.617 136.333 145.148 136.661 146.415 137.319C147.691 137.968 148.661 138.891 149.325 140.087C149.998 141.276 150.334 142.674 150.334 144.282C150.334 145.898 149.994 147.288 149.314 148.452C148.634 149.609 147.648 150.496 146.357 151.114C145.074 151.732 143.521 152.041 141.696 152.041H135.424V147.906H140.885C141.843 147.906 142.639 147.771 143.273 147.502C143.907 147.233 144.379 146.829 144.688 146.29C145.005 145.751 145.163 145.082 145.163 144.282C145.163 143.474 145.005 142.793 144.688 142.238C144.379 141.684 143.903 141.264 143.262 140.979C142.628 140.686 141.828 140.539 140.862 140.539H137.476V160.667H132.456ZM145.279 149.593L151.18 160.667H145.638L139.865 149.593H145.279Z" fill="black"/>
<path d="M157.974 160.667H152.595L160.792 136.333H167.261L175.447 160.667H170.067L164.119 141.894H163.934L157.974 160.667ZM157.638 151.102H170.345V155.118H157.638V151.102Z" fill="black"/>
<path d="M174.499 140.575V136.333H194V140.575H186.731V160.667H181.768V140.575H174.499Z" fill="black"/>
<path d="M222.5 188H193.5C195.181 187.049 196.452 186.211 197.498 185.287C200.439 182.688 201 178.455 201 174.53V86.5C184.142 84.6721 178.323 88.6217 171 101.5V83H211H245V101.5C237.677 88.6217 231.858 84.6721 215 86.5V174.53C215 178.455 215.561 182.688 218.502 185.287C219.548 186.211 220.819 187.049 222.5 188Z" fill="black"/>
<path fill-rule="evenodd" clip-rule="evenodd" d="M47 132H55L67.6404 102H121.006L135.5 132H150L99.5 26H92.5L47 132ZM117.624 95L92.5 43L70.5899 95H117.624Z" fill="black"/>
</g>
<defs>
<clipPath id="clip0_32_144">
<rect width="278" height="250" fill="white"/>
</clipPath>
</defs>
</svg>
